<?xml version="1.0" encoding="UTF-8"?>
<svg width="752pt" height="752pt" version="1.1" viewBox="0 0 752 752" xmlns="http://www.w3.org/2000/svg">
 <g fill="#ff001b">
  <path d="m411.52 259.97h-127.87c-26.992 0-48.777 21.785-48.777 48.777v134.97c0 26.992 21.785 48.777 48.777 48.777h127.87c26.992 0 48.777-21.785 48.777-48.777v-134.96c0-26.996-22.258-48.781-48.777-48.781zm-64.879 163.39c-33.152 0-62.512-17.996-77.668-44.988 15.629-26.992 44.516-44.988 77.668-44.988s62.512 17.996 77.668 44.988c-15.629 26.992-44.52 44.988-77.668 44.988z"/>
  <path d="m372.69 378.37c0 14.383-11.664 26.047-26.047 26.047-14.387 0-26.047-11.664-26.047-26.047 0-14.387 11.66-26.047 26.047-26.047 14.383 0 26.047 11.66 26.047 26.047"/>
  <path d="m500.08 301.65c-17.051 0-30.781 13.734-30.781 30.781v87.613c0 17.051 13.734 30.781 30.781 30.781 8.9961 0 16.574-7.5781 16.574-16.574l0.003906-116.03c0-8.9961-7.1055-16.574-16.578-16.574z"/>
 </g>
</svg>
